<svg width="20" height="19" viewBox="0 0 30 29" fill="none" xmlns="http://www.w3.org/2000/svg">
<path d="M29.0634 14.9241C29.0559 7.15567 22.7558 0.867619 14.9874 0.875072C7.21906 0.882525 0.93096 7.18265 0.938413 14.9511C0.945866 22.7194 7.24604 29.0075 15.0144 29.0001C22.7828 28.9926 29.0709 22.6924 29.0634 14.9241ZM14.7035 22.5656L9.4628 9.01197C9.23485 8.38294 9.61518 7.83301 10.5669 8.036L10.5657 8.03479L21.4441 10.3329C22.2154 10.5033 22.4033 10.9614 22.0407 11.6027L19.453 15.1208L21.0883 16.815C21.276 17.0023 21.4343 17.1603 21.4346 17.5236L17.8567 17.2774L11.9641 10.7674C11.7142 10.4841 11.574 10.8311 11.8228 11.2047L16.8999 19.2517L15.8205 22.7239C15.5821 23.4776 15.0677 23.4945 14.7035 22.5656Z" fill="black"/>
</svg>
