<svg width="20" height="20" viewBox="0 0 50 50" fill="black" xmlns="http://www.w3.org/2000/svg">
<path d="M-0.000188931 23.0126C0.00678067 35.6945 10.3304 46.0069 23.0124 45.9999C26.9724 45.9977 30.8659 44.9726 34.3008 43.0307L44.7424 45.951C45.0855 46.0468 45.4534 45.9536 45.7083 45.7054C45.9052 45.5143 46.012 45.2543 46.0119 44.9873C46.0118 44.9073 46.0018 44.8263 45.9828 44.7473L43.2778 33.8528C45.0619 30.5248 46.0019 26.7773 45.9998 22.9873C45.9928 10.3053 35.6692 -0.00705485 22.9872 -8.52559e-05C10.3052 0.00688434 -0.00715853 10.3306 -0.000188931 23.0126ZM31.1094 11.4255C32.4717 11.9167 33.716 14.276 33.8836 15.4099C34.0332 16.4278 34.0979 17.7158 33.6547 19.1301C33.3852 19.9872 33.0278 21.0874 32.4275 22.4967C29.9048 28.4211 24.0179 32.2924 23.6291 32.5886C23.2402 32.8838 20.4694 35.0013 17.6004 35.0029C14.7314 35.0045 13.3196 33.4802 12.7353 32.9386C12.151 32.3969 12.0046 31.758 12.0044 31.364C12.0042 30.97 12.009 30.577 12.0248 30.2319C12.0426 29.8689 11.8873 29.382 13.025 28.9024C14.1928 28.4098 17.0611 27.2272 17.354 27.081C17.646 26.9329 17.9869 26.8347 18.376 27.0305C18.7651 27.2262 19.0082 27.3241 19.3493 27.6199C19.6905 27.9157 20.1097 28.2395 20.3718 28.5054C20.663 28.8012 20.9782 29.108 21.562 28.7637C22.1458 28.4194 24.0541 27.2333 25.5992 25.4765C27.5839 23.2204 28.1989 21.3171 28.4906 20.7269C28.7822 20.1367 28.733 19.7918 28.3439 19.448C27.9537 19.1042 26.64 17.9729 26.0568 17.5802C25.4736 17.1876 25.5694 16.7935 25.7641 16.2514C25.9578 15.7093 27.3662 12.8055 27.6579 12.2153C27.9496 11.6252 28.0953 11.2311 28.3383 11.083C28.5802 10.9348 29.7482 10.9342 31.1094 11.4255Z" fill="black"/>
</svg>
